<?xml version="1.0" encoding="utf-8"?>
<!-- Generator: Adobe Illustrator 23.0.1, SVG Export Plug-In . SVG Version: 6.00 Build 0)  -->
<svg version="1.1" id="Слой_1" xmlns="http://www.w3.org/2000/svg" xmlns:xlink="http://www.w3.org/1999/xlink" x="0px" y="0px"
	 viewBox="0 0 120 120" style="enable-background:new 0 0 120 120;" xml:space="preserve">
<g>
	<g>
		<path d="M57.3,75.6h24.1L80,83H50.5l9.9-52.4c1.8-0.4,3.6-0.6,5.5-0.6c5.5,0,10,1.6,13.5,4.9s5.8,7.9,6.9,14l10.4-1.3
			c-1.1-6.2-2.8-11.1-5.1-15c-2.4-3.8-5.8-6.9-10.3-9.2S71.8,20,66.2,20c-1.3,0-2.6,0.1-3.8,0.2l2.4-12.5H54.4l-2.9,15.1
			c-2.3,0.9-4.5,2.1-6.6,3.5C38.5,30.6,33.2,37.1,29,45.8c-4.2,8.8-6.3,18.5-6.3,29.2c0,10.4,2.4,18.8,7.2,25.4
			c5.7,7.8,14.3,11.7,25.8,11.7c5.4,0,10.9-1,16.5-2.9s10.5-4.5,14.9-7.5l6.8-36.2H59.2L57.3,75.6z M77.8,94.7
			c-7.9,5.1-15.3,7.6-22.2,7.6s-12.3-2.3-16.3-6.9c-3.9-4.6-5.9-11.3-5.9-20.3s1.5-17,4.5-24.1c2.8-6.7,6.5-11.8,11.2-15.3
			L38.3,92.6h39.9L77.8,94.7z"/>
	</g>
</g>
</svg>
