<?xml version="1.0" encoding="utf-8"?>
<!-- Generator: Adobe Illustrator 23.0.1, SVG Export Plug-In . SVG Version: 6.00 Build 0)  -->
<svg version="1.1" id="Слой_1" xmlns="http://www.w3.org/2000/svg" xmlns:xlink="http://www.w3.org/1999/xlink" x="0px" y="0px"
	 viewBox="0 0 1366 768" style="enable-background:new 0 0 1366 768;" xml:space="preserve">
<style type="text/css">
	.st0{enable-background:new    ;}
	.st1{fill:#FF842A;}
</style>
<g class="st0">
	<path class="st1" d="M166,407.8v-31.5h-41.9v31.5h-23.6c4.5-10.2,7.7-20.6,9.8-31.5H69.4c-3.4,14.3-7.7,24.9-13,31.7h-8.9v50.8
		h28.3v-22.6h70.9V459H175v-51H166V407.8z M74.7,318.3v4.3c0,14.5-0.9,27.7-2.8,39.3h40.2c0.4-5.2,0.9-10.6,0.9-16v-1.3h11.1v17.1
		H166v-43.6H74.7V318.3z"/>
	<path class="st1" d="M268.8,387v15.6c0,5.9-0.6,9.8-1.7,11.9c-1.1,2-3.2,3.2-6.4,3.2c-2.6,0-4.3-0.7-5.3-2.4
		c-0.9-1.5-1.3-5-1.3-10.2v-28.4h-42.3v17.1c0,8.7,0.6,15.4,2.1,20c1.5,4.6,4,8.7,7.9,12.6c3.8,3.9,9.1,6.9,16,9.1
		c6.8,2.2,14.7,3.3,23.6,3.3c9.1,0,16.8-1.1,23-3.3c6.2-2.2,11.1-5.6,15.1-10c4-4.5,6.6-8.5,7.7-12.4c1.1-3.9,1.7-9.5,1.7-16.7v-8.7
		h-40V387z M266.5,361.9h-12.3 M266.5,361.9h42.3c-0.2-10.6-1.7-18.9-4.7-24.9c-3.2-6.3-8.5-11.3-16.2-15.2
		c-7.7-3.9-17.4-5.8-29.4-5.8c-9.8,0-18.3,1.7-25.7,4.8c-7.4,3.2-12.8,7.8-16.2,13.7c-3.2,5.9-4.9,14.1-4.9,24.3v3h42.3"/>
	<path class="st1" d="M407.1,376.4v59.8h42.1v-59.8H407.1z M350.3,318.3v43.6h41.9V343h14.9v18.9h42.1v-43.6H350.3z M350.3,376.4
		v59.8h41.9v-59.8H350.3z"/>
	<path class="st1" d="M559.9,376.4v59.8h36.8v-59.8H559.9z M557.5,318.3l-20,43.6h58.9v-43.6H557.5z M492,318.3v43.6h36.8v-43.6H492
		z M492,376.4v59.8h38.5l27.7-59.8H492z"/>
	<path class="st1" d="M703.5,376.4v59.8h41.9v-59.8H703.5z M646.5,318.3v43.6h42.1V343h14.9v18.9h41.9v-43.6H646.5z M646.5,376.4
		v27.3c0,6.7-1.1,10.6-3,11.7c-2.1,1.1-5.7,1.7-11.1,1.7v19.1h6.8c14.5,0,24.7-0.6,31.1-1.7c6.4-1.1,10.9-4.1,13.8-8.7
		c3-4.6,4.5-12.4,4.5-23.2v-26.2H646.5z"/>
	<path class="st1" d="M794.1,376.4c3.6,2.4,9.1,3.7,16.4,4.3c-7.9,1.9-13.4,3.5-16.6,5.4c-3.2,1.9-5.3,4.3-6.2,7.2
		c-0.9,3.2-1.3,8.2-1.3,15.2v27.7h38.7v-32.5c0-5.4,1.1-9.1,3.2-10.9c2.1-1.9,5.7-3,11.3-3v46.4h42.1v-59.8H794.1z M850.3,318.3
		c-26.6,0-43.8,2.6-51.7,7.6s-11.9,13.5-11.9,25.2c0,4.1,0.2,7.6,0.6,10.8h38.7c-0.4-1.7-0.6-3.9-0.6-6.3v-1.5
		c0-5.6,0.9-9.1,2.8-10.6c1.9-1.5,4.3-2.2,7.2-2.2h4.3v20.6h42.1v-43.6H850.3z"/>
	<path class="st1" d="M1023.1,411.5v-35.1H981v35.1h-14.9v-35.1h-41.9v59.8h79.8V459h28.3v-47.5L1023.1,411.5L1023.1,411.5z
		 M981.2,318.3v43.6h42.1v-43.6H981.2z M924.1,318.3v43.6h41.9v-43.6H924.1z"/>
	<path class="st1" d="M1138.2,376.4v59.8h36.8v-59.8H1138.2z M1136.1,318.3l-20,43.6h58.9v-43.6H1136.1z M1070.3,318.3v43.6h36.8
		v-43.6H1070.3z M1070.3,376.4v59.8h38.5l27.7-59.8H1070.3z"/>
	<path class="st1" d="M1285.7,376.4v59.8h36.8v-59.8H1285.7z M1283.3,318.3l-20,43.6h58.9v-43.6H1283.3z M1217.8,318.3v43.6h36.8
		v-43.6H1217.8z M1217.8,376.4v59.8h38.5l27.7-59.8H1217.8z"/>
</g>
<path class="st1" d="M794.1,386.1c-3.2,1.9-5.3,4.3-6.2,7.2c-0.9,3.2-1.3,8.2-1.3,15.2v27.7h38.7v-32.5c0-5.4,1.1-9.1,3.2-10.9
	c2.1-2,5.7-3,11.3-3v46.4H882v-59.8h-87.2c3.6,2.4,9.1,3.7,16.4,4.3C802.9,382.4,797.3,384.2,794.1,386.1z"/>
<rect x="981.2" y="318.3" class="st1" width="42.1" height="43.6"/>
<polygon class="st1" points="1175,361.9 1175,318.3 1136.1,318.3 1116.1,361.9 "/>
<rect x="492" y="318.3" class="st1" width="36.8" height="43.6"/>
<polygon class="st1" points="646.5,318.3 745.4,318.3 745.4,361.9 703.5,361.9 703.5,343 688.6,343 688.6,361.9 646.5,361.9 "/>
<polygon class="st1" points="1285.7,376.4 1322.5,376.4 1322.5,436.2 1285.7,436.2 1285.7,376.4 1283.7,376.4 1285.7,376.4 
	1283.7,376.4 1217.8,376.4 "/>
<rect x="924.1" y="318.3" class="st1" width="41.9" height="43.6"/>
</svg>
