<?xml version="1.0" encoding="utf-8"?>
<!-- Generator: Adobe Illustrator 23.0.1, SVG Export Plug-In . SVG Version: 6.00 Build 0)  -->
<svg version="1.1" id="Слой_1" xmlns="http://www.w3.org/2000/svg" xmlns:xlink="http://www.w3.org/1999/xlink" x="0px" y="0px"
	 viewBox="0 0 1366 768" style="enable-background:new 0 0 1366 768;" xml:space="preserve">
<style type="text/css">
	.st0{fill:#FF842A;}
	.st1{fill:#EA288A;}
</style>
<polygon class="st0" points="90.3,286.2 94.4,286.2 94.4,286.2 "/>
<path class="st0" d="M109.1,447.6L109.1,447.6c-0.6,0-1.3-0.2-1.9-0.2c-0.4,0-0.6,0-1.1,0c0.4,0,0.6,0,1.1,0
	C107.8,447.5,108.4,447.6,109.1,447.6z"/>
<path class="st0" d="M620.4,304.7l116,0.4c0,0,0,0,0-0.2L620.4,304.7z"/>
<polygon class="st0" points="268,286.2 90.3,286.2 90.3,286.2 94.4,286.2 "/>
<rect x="1071.2" y="427.2" class="st0" width="0.2" height="18.6"/>
<path class="st1" d="M1259.3,286.4c-15.5,0-27.4,1.5-35.5,4.3c-8.1,2.8-14.7,8-19.6,15.2s-7.2,15.2-7.2,24.1
	c0,11.3,4,20.8,12.1,28.6s20.4,12.6,37.2,14.8c-6.2,2.8-10.9,5.4-14,8c-6.8,5.6-13.2,12.8-19.1,21.2l-17.4,24.9h-103.2V286.6h-23.4
	l-93.2,126.2V286.6h-0.4l-363.8-0.4l-54.3,104.1l-52.6-103.9H266.5h57.7h23.2l-253-0.2h-4l0,0h4l0,0l0,0c-0.6,0-1.1,0-1.7-0.2
	c-0.6,0-1.1,0.2-1.7,0.2c-0.2,0-0.4,0-0.6,0c-0.9,0.2-1.9,0.4-3.2,0.4l0,0c-9.4,1.1-13,3.9-18.9,6.9c-12.8,6.5-22.8,15.8-29.8,28.2
	c-7,12.4-10.4,26.9-10.4,43.4c0,15.2,3,29.5,9.1,42.7s15.1,23.4,27,30.4c6.4,3.7,13.8,6.5,22.3,8.2c3,0.6,6,1.1,9.1,1.5
	c0.6,0,1.3-0.2,1.9-0.2c0.4,0,0.9,0,1.3,0c0.4,0,0.9,0,1.5,0c0.4,0,0.9,0,1.3,0c0.4,0,0.9,0,1.5,0c0.6,0,1.5,0,2.1,0.2
	c0.4,0,0.6,0,1.1-0.2c0.4,0,0.6,0,1.1,0c0.6,0,1.3,0,1.9,0.2c0,0,0,0,0.2,0h95.7v-16.7h-95.5l0,0c-0.2,0-0.4,0-0.9,0h-0.2
	c-0.4,0-0.6,0-0.9,0l-0.2,1.3l-0.2-1.5c-1.1,0-1.9-0.4-2.8-0.6c-6-0.4-11.7-1.5-17-3.5c-3-1.1-6-2.4-8.9-3.9
	c-9.1-5-16-12.6-20.2-22.6s-6.6-21.9-6.6-35.4c0-10.6,1.9-20.8,5.5-30.6c3.6-9.8,10-17.8,19.1-23.6c2.8-1.9,8.5-5.2,17-5.8l0,0h2.6
	l228.1,0.2v140.7h23.2V305.1h37.9l105.7,0.2l40.9,72.4l0,0l16.4,29.1c-7,16-7,16-11.3,19.3c-4,3.3-8.9,5-14.7,5
	c-7,0-13.4-1.7-19.8-4.8v18c8.7,2.6,16,3.7,21.9,3.7c9.8,0,17.4-2.4,22.6-7.2c5.3-4.8,65.1-120.4,73.2-136l116,0.2c0,0,0,0,0,0.2
	c-1.3,52.9-8.3,104.5-20.9,121.9h-13.6v55.9h20.6v-37.1H838v37.1h20.6v-56h-15.7V304.9l111.7-0.2v141h23.2l93.4-125.8v125.8h140.4
	l23.2-33.2c6.8-9.6,12.3-16.9,16.8-21.9c4.5-5,8.3-8.5,11.7-10.6c3.4-2,7-3.5,10.6-4.3c2.6-0.6,7-0.7,13-0.7h26.8v70.7h23.2V286.4
	H1259.3z M820,427h-80.9c7.9-15.2,13-34.5,15.7-58.1c2.8-23.6,3.6-50.1,3.6-63.8H820L820,427L820,427z M1314,356.7h-49.8
	c-10.6,0-18.9-0.9-24.9-3c-6-2-10.6-5.2-13.6-9.6c-3.2-4.5-4.7-9.1-4.7-14.3c0-7.6,3-13.7,8.9-18.6c6-4.8,15.5-7.2,28.5-7.2h55.5
	L1314,356.7L1314,356.7z"/>
<polygon class="st0" points="504.8,286.4 347.4,286.4 347.4,286.4 395,286.4 "/>
</svg>
