<?xml version="1.0" encoding="utf-8"?>
<!-- Generator: Adobe Illustrator 23.0.1, SVG Export Plug-In . SVG Version: 6.00 Build 0)  -->
<svg version="1.1" id="Слой_1" xmlns="http://www.w3.org/2000/svg" xmlns:xlink="http://www.w3.org/1999/xlink" x="0px" y="0px"
	 viewBox="0 0 1366 768" style="enable-background:new 0 0 1366 768;" xml:space="preserve">
<style type="text/css">
	.st0{enable-background:new    ;}
	.st1{fill:#FF842A;}
</style>
<g class="st0">
	<path class="st1" d="M148.6,408.4c-4-5-9.4-8.4-15.5-10.2c5.3-2.8,9.1-6.1,11.7-10.2s3.8-8.9,3.8-14.5c0-6.9-2.1-12.8-6.6-17.6
		c-4.5-5-9.8-8.4-16-10.2c-6.2-1.9-15.7-2.8-28.3-2.8H46v115.4h59.6c15.5,0,27.4-2.6,35.5-8c8.1-5.2,12.6-13.4,13.4-24.3
		C154.8,419.2,152.6,413.4,148.6,408.4z M68.4,359h24.7c11.9,0,20.4,1.3,25.3,3.5c4.9,2.2,7.4,6.7,7.4,12.6c0,3.7-1.5,6.9-4.3,9.5
		s-6,4.5-9.6,5.2c-3.6,0.9-10.2,1.3-19.8,1.3h-24V359H68.4z M124.1,438.5c-4.7,2.6-13.4,3.9-26.2,3.9H68.4v-34.7h27.2
		c9.8,0,16.8,0.4,21.3,1.3s8.1,2.8,10.6,5.9c2.8,3.2,4,6.5,4,10.2C131.4,431.4,128.8,435.9,124.1,438.5z"/>
	<path class="st1" d="M480.7,416c-1.7,9.8-5.3,17.1-11.3,21.7c-6,4.6-13.2,7.1-22.1,7.1c-11.1,0-19.8-3.5-26.6-10.6
		c-6.8-7.1-10.2-18.4-10.2-33.8c0-15.2,3.6-26.5,10.6-33.6c7-7.1,16.2-10.6,27.4-10.6c7.4,0,13.8,2,19.1,5.9
		c5.3,3.9,8.9,9.8,11.1,17.4l21.9-3c-2.6-11.7-8.5-20.6-17.7-27.1c-9.1-6.3-20.9-9.5-35.3-9.5c-11.5,0-21.9,2.4-31.7,7.1
		c-9.8,4.6-16.8,11.7-21.7,21c-4.7,9.3-7,20.2-7,32.7c0,19.3,5.5,34.1,16.6,44.4c11.1,10.4,25.5,15.4,43.6,15.4
		c14.5,0,26.6-3.7,36.6-11.3c10-7.4,16.2-17.8,18.5-31.2L480.7,416z"/>
</g>
<g class="st0">
	<path class="st1" d="M611.4,422.5c-9.4-13.4-18.7-21.2-28.3-23.4c6-2.4,10.2-5,13.2-8c2.8-3,6-8.2,9.4-15.6
		c3.6-8,6.2-12.6,8.1-14.3c1.7-1.5,5.5-2.2,11.3-2.2h6.2v-16.1h-4.5c-7.9,0-13.6,0.6-17.2,1.5c-3.6,0.9-6.8,3-9.4,5.9
		c-2.8,3-6.4,8.9-10.6,18c-5.5,11.5-9.8,18.6-12.8,21c-2.8,2.4-7.9,3.5-15.1,3.5v-49.9h-22.3v115.4h22.3v-53.4
		c5.1,0,9.4,1.1,13.2,3.5c3.6,2.2,7.9,7.1,12.8,14.1l24,35.8h24.7L611.4,422.5z"/>
	<path class="st1" d="M966.3,408.4c-4-5-9.4-8.4-15.5-10.2c5.3-2.8,9.1-6.1,11.7-10.2s3.8-8.9,3.8-14.5c0-6.9-2.1-12.8-6.6-17.6
		c-4.5-5-9.8-8.4-16-10.2c-6.2-1.9-15.7-2.8-28.3-2.8h-51.7v115.4h59.8c15.5,0,27.4-2.6,35.5-8c8.1-5.2,12.6-13.4,13.4-24.3
		C972.5,419.2,970.6,413.4,966.3,408.4z M886.3,359H911c11.9,0,20.4,1.3,25.3,3.5c4.9,2.2,7.4,6.7,7.4,12.6c0,3.7-1.5,6.9-4.3,9.5
		c-2.8,2.6-6,4.5-9.6,5.2c-3.6,0.9-10.2,1.3-19.8,1.3h-24V359H886.3z M942,438.5c-4.7,2.6-13.4,3.9-26.2,3.9h-29.6v-34.7h27.2
		c9.8,0,16.8,0.4,21.3,1.3s8.1,2.8,10.6,5.9c2.8,3.2,4,6.5,4,10.2C949.3,431.4,946.7,435.9,942,438.5z"/>
	<path class="st1" d="M1290.1,299.1c-1.3,5-3.4,8.7-7,11.1c-3.4,2.4-8.5,3.5-15.3,3.5c-5.7,0-10.4-1.3-13.8-3.7
		c-3.4-2.4-5.7-6.1-7-11.1h-15.3c1.3,9.1,5.1,16.1,11.5,21c6.4,4.8,14.9,7.2,25.5,7.2c10.6,0,18.9-2.4,25.3-7.2
		c6.4-4.8,10.2-11.9,11.5-21h-15.3V299.1z M1296.7,342.9l-62.1,88.1v-88.1h-22.6v115.4h24.3l62.1-87.6v87.6h22.3V342.9H1296.7z"/>
</g>
<g>
	<path class="st1" d="M274.8,337.7l-66,33v65.9l66,33l66-33v-65.9L274.8,337.7z M322.4,426.6l-47.7,24.9l-47.7-24.9v-49.7l47.7-21.5
		l47.7,21.5V426.6z"/>
</g>
<g>
	<path class="st1" d="M742.9,334l-66,33v65.9l66,33l66-33V367L742.9,334z M790.5,422.9l-47.7,24.9l-47.7-24.9v-49.7l47.7-21.5
		l47.7,21.5V422.9z"/>
</g>
<g>
	<path class="st1" d="M1087.6,334l-66,33v65.9l66,33l66-33V367L1087.6,334z M1135.2,422.9l-47.7,24.9l-47.7-24.9v-49.7l47.7-21.5
		l47.7,21.5V422.9z"/>
</g>
</svg>
